<?xml version="1.0" encoding="utf-8"?>
<!-- Generator: Adobe Illustrator 19.2.1, SVG Export Plug-In . SVG Version: 6.00 Build 0)  -->
<svg version="1.1" id="Layer_1" xmlns="http://www.w3.org/2000/svg" xmlns:xlink="http://www.w3.org/1999/xlink" x="0px" y="0px"
	 width="1006.2px" height="217.6px" viewBox="0 0 1006.2 217.6" style="enable-background:new 0 0 1006.2 217.6;"
	 xml:space="preserve">
<style type="text/css">
	.st0{fill:#2D324C;}
	.st1{fill:#E5E5E4;}
	.st2{fill:#2C314C;stroke:#1A3C49;stroke-width:0.25;stroke-miterlimit:10;}
	.st3{fill:#3EAEE1;}
</style>
<path class="st0" d="M68.1,4.6c0-1.7,1.3-3,3-3h36.7c19.1,0,33.8,12.8,33.8,29.6c0,12.3-10.1,21.9-17.6,25.5
	c8.5,2.7,20.8,11.4,20.8,26.1c0,17.9-15.4,30.9-34.9,30.9H71.1c-1.7,0-3-1.3-3-3V4.6z M105.9,48.7c8.2,0,13.8-6.4,13.8-14.4
	s-5.6-13.6-13.8-13.6H88.7v28H105.9z M108.1,94.8c7.9,0.1,14.3-6.2,14.4-14.1c0-0.2,0-0.3,0-0.5c0-8-8-13.9-16.3-13.9H88.7v28.5
	C88.7,94.8,108.1,94.8,108.1,94.8z"/>
<path class="st0" d="M193.1,109.6L242.9,1.8c0.4-1.1,1.5-1.8,2.7-1.8h1.6c1.2-0.1,2.3,0.7,2.7,1.8l49.3,107.8
	c0.8,1.4,0.3,3.1-1.1,3.9c-0.5,0.3-1,0.4-1.6,0.3h-13.9c-2.4,0-3.5-1-4.6-3.2l-7.8-17.3h-47.9l-7.8,17.3c-0.7,1.9-2.5,3.2-4.6,3.2
	H196C193.5,113.7,192.2,111.6,193.1,109.6z M262.3,75.4l-16-35.2h-0.5l-15.7,35.2L262.3,75.4L262.3,75.4z"/>
<path class="st0" d="M367.9,59.7L331.4,6.2c-0.9-1.3-0.6-3.2,0.7-4.1c0.5-0.4,1.2-0.6,1.9-0.5h16.3c1,0,2,0.6,2.6,1.4l25.6,36.8
	L404.1,3c0.6-0.8,1.6-1.4,2.6-1.4h16.5c1.7,0,3,1.3,3.1,2.9c0,0.6-0.1,1.2-0.5,1.7l-37,53.3v51.2c0,1.6-1.4,3-3,3h-14.7
	c-1.7,0-3-1.3-3-3v-51C368.1,59.7,367.9,59.7,367.9,59.7z"/>
<path class="st0" d="M474.1,98l5.8-9.9c1-1.8,3.3-2.4,5.1-1.3c0.1,0.1,0.2,0.1,0.3,0.2c0.8,0.5,13.8,9.9,24.2,9.9
	c8.3,0,14.6-5.4,14.6-12.3c0-8.2-6.9-13.8-20.3-19.2c-15.1-6.1-30.1-15.7-30.1-34.6c0-14.3,10.6-30.8,36-30.8
	c16.3,0,28.8,8.3,32,10.7c1.7,1.2,2.1,3.5,1,5.3l-6.1,9.1c-1.3,1.9-3.7,3.2-5.6,1.9c-1.3-0.8-13.5-8.8-22.3-8.8
	c-9.1,0-14.1,6.1-14.1,11.2c0,7.5,5.9,12.7,18.9,17.9C529,53.5,547,62.8,547,83.5c0,16.5-14.3,31.7-36.8,31.7
	c-20.2,0-32-9.5-35.2-12.5C473.4,101.4,472.6,100.6,474.1,98z"/>
<path class="st0" d="M608.3,4.6c0-1.6,1.4-3,3-3h14.9c1.6,0,3,1.4,3,3v106c0,1.6-1.4,3-3,3h-14.9c-1.6,0-3-1.4-3-3V4.6z"/>
<path class="st0" d="M699.3,4.6c0-1.6,1.3-2.9,2.9-3h38c30.9,0,56.2,25.1,56.2,55.9c0,31-25.2,56.2-56.2,56.2h-38
	c-1.6-0.1-2.9-1.4-2.9-3V4.6z M738.2,94.2c20.8,0,36-15.7,36-36.7c0-20.8-15.2-36.5-36-36.5h-18.3v73.2H738.2z"/>
<path class="st0" d="M858.3,4.6c0-1.7,1.3-3,3-3h65.2c1.7,0,3,1.3,3,3v13.1c0,1.7-1.3,3-3,3h-47.4V47h39.6c1.6,0,3,1.4,3,3v13.3
	c0,1.7-1.3,3-3,3l0,0h-39.6v28h47.4c1.7,0,3,1.3,3,3v13.4c0,1.7-1.3,3-3,3h-65.2c-1.7,0-3-1.3-3-3V4.6z"/>
<path class="st1" d="M632.5,155.2h-251c-0.7,0-1.2-0.5-1.2-1.2v-6.3c0-0.7,0.5-1.2,1.2-1.2h251c0.7,0,1.2,0.5,1.2,1.2v6.3
	C633.6,154.6,633.1,155.1,632.5,155.2z"/>
<path class="st1" d="M453.4,168.6V99.3c0-0.7,0.5-1.2,1.2-1.2h6.3c0.7,0,1.2,0.5,1.2,1.2v69.3c0,0.7-0.5,1.2-1.2,1.2h-6.3
	C454,169.8,453.4,169.3,453.4,168.6C453.4,168.7,453.4,168.6,453.4,168.6z"/>
<path class="st1" d="M552.4,168.6V99.3c0-0.7,0.5-1.2,1.2-1.2h6.3c0.7,0,1.2,0.5,1.2,1.2v69.3c0,0.7-0.5,1.2-1.2,1.2h-6.3
	C552.9,169.8,552.4,169.3,552.4,168.6z"/>
<path class="st1" d="M400.9,154.9h-0.1c-2.3,0-4.1-1.8-4.1-4.1c0-2.3,1.8-4.1,4.1-4.1c0,0,0,0,0,0h0.1c17.8,0,31.4-4.6,40.6-13.8
	c12.1-12.1,12.2-27.9,12.2-28c0-2.3,1.8-4.1,4.1-4.1s4.1,1.8,4.1,4.1c0,0.8-0.2,19.4-14.6,33.8C436.4,149.5,420.9,154.9,400.9,154.9
	z"/>
<path class="st1" d="M499.9,154.9h-0.1c-2.3,0-4.1-1.8-4.1-4.1c0-2.3,1.8-4.1,4.1-4.1c0,0,0,0,0,0h0.1c17.8,0,31.4-4.6,40.6-13.8
	c12.1-12.1,12.2-27.9,12.2-28c0-2.3,1.8-4.1,4.1-4.1c2.2,0,4.1,1.8,4.1,4c0,0,0,0.1,0,0.1c0,0.8-0.2,19.4-14.6,33.8
	C535.5,149.5,519.9,154.9,499.9,154.9z"/>
<path class="st1" d="M613.6,154.9c-20,0-35.6-5.4-46.3-16.2c-14.4-14.4-14.6-33-14.6-33.8c0-2.3,1.8-4.1,4.1-4.1
	c2.3,0,4.1,1.8,4.1,4.1c0,1.7,0.8,41.8,52.8,41.8h0.1c2.3,0,4.1,1.8,4.1,4.1c0,2.3-1.8,4.1-4.1,4.1H613.6z"/>
<path class="st1" d="M514.6,154.9c-20,0-35.6-5.4-46.3-16.2c-14.4-14.4-14.6-33-14.6-33.8c0-2.3,1.8-4.1,4.1-4.1s4.1,1.8,4.1,4.1
	c0,1.7,0.8,41.8,52.8,41.8h0.1c2.3,0,4.1,1.8,4.1,4.1c0,2.3-1.8,4.1-4.1,4.1H514.6z"/>
<path class="st2" d="M317,213.6h3.7c2.1-4.9,4.1-9.8,6.2-14.6s4.1-9.7,6.2-14.6c2.1,4.9,4.1,9.8,6.2,14.6s4.1,9.7,6.2,14.6h3.7v3.5
	h-9.9v-3.5h2.5c-0.6-1.5-1.3-3-1.9-4.4s-1.2-2.9-1.9-4.4h-9.9l-3.8,8.9h2.6v3.5H317V213.6L317,213.6z M333.5,194.1l-0.5-1.5
	c0,0.1-0.1,0.2-0.1,0.3s-0.1,0.3-0.1,0.5c-0.1,0.2-0.1,0.5-0.2,0.7c-0.4,0.9-0.7,1.7-1.1,2.6c-0.3,0.7-0.6,1.5-0.9,2.3
	s-0.6,1.6-0.9,2.2h6.8L333.5,194.1z"/>
<path class="st2" d="M362.7,213v-5.2h3.5v4c0.9,0.6,1.8,1.1,2.8,1.5c1.2,0.4,2.4,0.6,3.6,0.6c0.7,0,1.5-0.1,2.2-0.3
	c0.7-0.2,1.3-0.5,1.9-1c0.6-0.4,1-1,1.3-1.6c0.8-1.9,0.6-4.2-0.6-5.9c-0.7-0.9-1.6-1.5-2.7-1.9c-1.1-0.5-2.3-0.9-3.5-1.2
	c-1.2-0.3-2.4-0.7-3.5-1.3c-1.1-0.6-2-1.4-2.7-2.4c-0.8-1.3-1.2-2.8-1.1-4.3c0-1,0.1-2,0.4-3c0.3-1,0.8-1.9,1.5-2.7
	c0.7-0.9,1.7-1.5,2.7-2c1.3-0.6,2.8-0.8,4.2-0.8c0.6,0,1.1,0,1.7,0.1c0.7,0.1,1.3,0.2,2,0.4c0.7,0.2,1.4,0.4,2.1,0.8
	c0.8,0.4,1.5,0.9,2.2,1.4v4.4h-3.5V190c-0.6-0.2-1.2-0.4-2-0.6c-0.8-0.2-1.7-0.3-2.5-0.3c-1.5-0.1-2.9,0.5-3.9,1.5
	c-0.8,1-1.3,2.2-1.3,3.5c0,0.8,0.2,1.5,0.6,2.2c0.4,0.6,1,1.1,1.7,1.4c0.8,0.4,1.6,0.7,2.4,1l2.7,0.9c0.9,0.3,1.8,0.7,2.7,1.1
	c0.9,0.4,1.7,1,2.4,1.7c0.7,0.8,1.3,1.6,1.7,2.6c0.4,1.2,0.6,2.5,0.6,3.8c0,1.2-0.2,2.5-0.7,3.6c-0.5,1-1.2,2-2,2.8
	c-0.9,0.8-1.9,1.4-3,1.7c-1.2,0.4-2.4,0.6-3.6,0.6c-1.1,0-2.2-0.1-3.3-0.4c-1-0.3-2-0.6-3-1c-0.8-0.4-1.6-0.9-2.4-1.4
	C363.7,214.2,363.1,213.7,362.7,213z"/>
<path class="st2" d="M395.9,213v-5.2h3.5v4c0.9,0.6,1.8,1.1,2.8,1.5c1.2,0.4,2.4,0.6,3.6,0.6c0.7,0,1.5-0.1,2.2-0.3
	c0.7-0.2,1.3-0.5,1.9-1c0.6-0.4,1-1,1.3-1.6c0.8-1.9,0.6-4.2-0.6-5.9c-0.7-0.9-1.6-1.5-2.7-1.9c-1.1-0.5-2.3-0.9-3.5-1.2
	c-1.2-0.3-2.4-0.7-3.5-1.3c-1.1-0.6-2-1.4-2.7-2.4c-0.8-1.3-1.2-2.8-1.1-4.3c0-1,0.1-2,0.4-3c0.3-1,0.8-1.9,1.5-2.7
	c0.7-0.9,1.7-1.5,2.7-2c1.3-0.6,2.8-0.8,4.2-0.8c0.6,0,1.1,0,1.7,0.1c0.7,0.1,1.3,0.2,2,0.4c0.7,0.2,1.4,0.4,2.1,0.8
	c0.8,0.4,1.5,0.9,2.2,1.4v4.4h-3.5V190c-0.6-0.2-1.2-0.4-2-0.6c-0.8-0.2-1.7-0.3-2.5-0.3c-1.5-0.1-2.9,0.5-3.9,1.5
	c-0.8,1-1.3,2.2-1.3,3.5c0,0.8,0.2,1.5,0.6,2.2c0.4,0.6,1,1.1,1.7,1.4c0.8,0.4,1.6,0.7,2.4,1l2.7,0.9c0.9,0.3,1.8,0.7,2.7,1.1
	c0.9,0.4,1.7,1,2.4,1.7c0.7,0.8,1.3,1.6,1.7,2.6c0.4,1.2,0.6,2.5,0.6,3.8c0,1.2-0.2,2.5-0.7,3.6c-0.5,1-1.2,2-2,2.8
	c-0.9,0.8-1.9,1.4-3,1.7c-1.2,0.4-2.4,0.6-3.6,0.6c-1.1,0-2.2-0.1-3.3-0.4c-1-0.3-2-0.6-3-1c-0.8-0.4-1.6-0.9-2.4-1.4
	C396.9,214.2,396.3,213.7,395.9,213z"/>
<path class="st2" d="M428.9,201.5c0-2.1,0.4-4.3,1.3-6.2c0.8-1.9,1.9-3.6,3.4-5.1c1.4-1.5,3.2-2.7,5.1-3.5c1.9-0.9,4.1-1.3,6.2-1.3
	c2.1,0,4.3,0.4,6.2,1.3c1.9,0.8,3.7,2,5.1,3.5c1.5,1.5,2.6,3.2,3.5,5.1c0.9,1.9,1.3,4.1,1.3,6.2c0,2.1-0.4,4.3-1.3,6.2
	c-0.9,1.9-2,3.6-3.5,5.1c-1.5,1.4-3.2,2.6-5.1,3.4c-2,0.8-4.1,1.3-6.2,1.3c-2.1,0-4.3-0.4-6.2-1.3c-1.9-0.8-3.6-2-5.1-3.4
	c-1.5-1.5-2.6-3.2-3.4-5.1C429.3,205.8,428.9,203.6,428.9,201.5z M432.6,201.5c0,1.7,0.3,3.3,1,4.8c0.6,1.5,1.5,2.8,2.6,3.9
	c1.1,1.1,2.5,2,3.9,2.7c3.1,1.3,6.5,1.3,9.6,0c1.5-0.6,2.8-1.5,3.9-2.7c1.1-1.1,2-2.4,2.6-3.9c0.6-1.5,1-3.2,1-4.8
	c0-1.7-0.3-3.3-1-4.8c-0.6-1.5-1.5-2.8-2.6-3.9c-1.1-1.1-2.5-2-3.9-2.7c-3.1-1.3-6.5-1.3-9.6,0c-1.5,0.6-2.8,1.5-3.9,2.7
	c-1.1,1.1-2,2.4-2.6,3.9C432.9,198.2,432.6,199.8,432.6,201.5z"/>
<path class="st2" d="M495.5,192.7V190c-1.5-0.7-3.1-1-4.7-1c-1.7,0-3.3,0.3-4.8,1c-1.4,0.7-2.8,1.6-3.9,2.7c-1.1,1.1-2,2.5-2.6,4
	c-0.6,1.5-1,3.2-1,4.8c0,1.7,0.3,3.3,1,4.8c0.6,1.5,1.5,2.8,2.6,4c1.1,1.1,2.5,2,3.9,2.7c1.5,0.7,3.1,1,4.8,1c2.2,0,4.3-0.6,6.1-1.7
	l2,3c-1.2,0.7-2.5,1.2-3.8,1.6c-1.4,0.4-2.8,0.6-4.3,0.6c-2.1,0-4.3-0.4-6.2-1.3c-1.9-0.8-3.6-2-5.1-3.4c-1.5-1.5-2.6-3.2-3.4-5.1
	c-0.8-2-1.3-4.1-1.3-6.2c0-2.1,0.4-4.3,1.3-6.2c1.6-3.9,4.6-6.9,8.5-8.5c1.9-0.9,4.1-1.3,6.2-1.3c2.9,0,5.7,0.8,8.2,2.3v5h-3.5
	L495.5,192.7L495.5,192.7z"/>
<path class="st2" d="M513,213.6h3.5v-24.3H513v-3.5h10.8v3.5h-3.6v24.3h3.6v3.5H513V213.6z"/>
<path class="st2" d="M537.7,213.6h3.7c2.1-4.9,4.1-9.8,6.2-14.6s4.1-9.7,6.2-14.6c2.1,4.9,4.1,9.8,6.2,14.6s4.1,9.7,6.2,14.6h3.7
	v3.5H560v-3.5h2.5c-0.6-1.5-1.3-3-1.9-4.4s-1.2-2.9-1.9-4.4h-9.9l-3.8,8.9h2.6v3.5h-9.9L537.7,213.6L537.7,213.6L537.7,213.6z
	 M554.2,194.1l-0.4-1.5c0,0.1-0.1,0.2-0.1,0.3s-0.1,0.3-0.1,0.5c-0.1,0.2-0.1,0.5-0.2,0.7c-0.4,0.9-0.7,1.7-1.1,2.6
	c-0.3,0.7-0.6,1.5-0.9,2.3s-0.6,1.6-0.9,2.2h6.8L554.2,194.1z"/>
<path class="st2" d="M586.9,213.6h3.9v-24.3h-7v3.4h-3.5v-6.9h24.8v6.9h-3.5v-3.4h-7.1v24.3h3.3v3.5H587L586.9,213.6L586.9,213.6z"
	/>
<path class="st2" d="M618.8,213.6h2.5v-24.3h-2.5v-3.5h21.8v6.9h-3.5v-3.4h-12v10.3h13.8v3.5h-13.8v10.5h12.7v-3.4h3.5v6.9h-22.4
	v-3.5H618.8L618.8,213.6z"/>
<path class="st2" d="M655.5,213v-5.2h3.5v4c0.9,0.6,1.8,1.1,2.8,1.5c1.2,0.4,2.4,0.6,3.6,0.6c0.7,0,1.5-0.1,2.2-0.3
	c0.7-0.2,1.3-0.5,1.9-1c0.6-0.4,1-1,1.3-1.6c0.8-1.9,0.6-4.2-0.6-5.9c-0.7-0.9-1.6-1.5-2.7-1.9c-1.1-0.5-2.3-0.9-3.5-1.2
	c-1.2-0.3-2.4-0.7-3.5-1.3c-1.1-0.6-2-1.4-2.7-2.4c-0.8-1.3-1.2-2.8-1.1-4.3c0-1,0.1-2,0.4-3c0.3-1,0.8-1.9,1.5-2.7
	c0.7-0.9,1.7-1.5,2.7-2c1.3-0.6,2.8-0.8,4.2-0.8c0.6,0,1.1,0,1.7,0.1c0.7,0.1,1.3,0.2,2,0.4c0.7,0.2,1.4,0.4,2.1,0.8
	c0.8,0.4,1.5,0.9,2.2,1.4v4.4H670V190c-0.6-0.2-1.2-0.4-2-0.6c-0.8-0.2-1.7-0.3-2.5-0.3c-1.5-0.1-2.9,0.5-3.9,1.5
	c-0.8,1-1.3,2.2-1.3,3.5c0,0.8,0.2,1.5,0.6,2.2c0.4,0.6,1,1.1,1.7,1.4c0.8,0.4,1.6,0.7,2.4,1l2.7,0.9c0.9,0.3,1.8,0.7,2.7,1.1
	c0.9,0.4,1.7,1,2.4,1.7c0.7,0.8,1.3,1.6,1.7,2.6c0.4,1.2,0.6,2.5,0.6,3.8c0,1.2-0.2,2.5-0.7,3.6c-0.5,1-1.2,2-2,2.8
	c-0.9,0.8-1.9,1.4-3,1.7c-1.2,0.4-2.4,0.6-3.6,0.6c-1.1,0-2.2-0.1-3.3-0.4c-1-0.3-2-0.6-3-1c-0.8-0.4-1.6-0.9-2.4-1.4
	C656.5,214.2,655.9,213.7,655.5,213z"/>
<path class="st3" d="M0,69.1V66h2.1v2.4c0.5,0.4,1,0.7,1.6,0.9c0.7,0.3,1.4,0.4,2.1,0.4c0.4,0,0.9-0.1,1.3-0.2
	c0.4-0.1,0.8-0.3,1.1-0.6c0.3-0.3,0.6-0.6,0.8-1c0.2-0.4,0.3-0.8,0.3-1.3c0-0.7-0.2-1.5-0.6-2.1c-0.4-0.5-1-0.9-1.6-1.1
	c-0.7-0.3-1.4-0.5-2.1-0.7c-0.7-0.2-1.4-0.5-2.1-0.8c-0.6-0.3-1.2-0.8-1.6-1.4c-0.5-0.7-0.7-1.6-0.7-2.5c0-0.6,0.1-1.1,0.2-1.7
	c0.2-0.6,0.5-1.1,0.9-1.6c0.4-0.5,1-0.9,1.6-1.2c0.8-0.3,1.6-0.4,2.5-0.4c0.3,0,0.7,0,1,0.1c0.4,0,0.8,0.1,1.2,0.2
	c0.4,0.1,0.9,0.3,1.3,0.5c0.5,0.2,0.9,0.5,1.3,0.8v2.6h-2v-1.6c-0.4-0.2-0.8-0.3-1.2-0.4c-0.5-0.1-1-0.2-1.5-0.2
	C5,55,4.2,55.4,3.6,56c-0.5,0.6-0.7,1.3-0.7,2.1c0,0.5,0.1,0.9,0.4,1.3c0.3,0.3,0.6,0.6,1,0.8c0.4,0.2,0.9,0.4,1.4,0.6
	s1,0.3,1.6,0.5c0.6,0.2,1.1,0.4,1.6,0.7c0.5,0.3,1,0.6,1.4,1c0.4,0.4,0.7,0.9,1,1.5c0.3,0.7,0.4,1.5,0.4,2.3c0,0.7-0.1,1.4-0.4,2.1
	c-0.3,0.6-0.7,1.2-1.2,1.6c-0.5,0.4-1.1,0.8-1.8,1c-0.7,0.2-1.4,0.4-2.1,0.4c-0.7,0-1.3-0.1-2-0.2c-0.6-0.1-1.2-0.3-1.7-0.6
	c-0.5-0.2-1-0.5-1.4-0.8C0.7,69.9,0.3,69.5,0,69.1z"/>
<path class="st3" d="M18.5,69.5H20V55.2h-1.5v-2.1h12.9v4.1h-2.1v-2h-7.1v6h8.2v2.1h-8.2v6.2h2.7v2.1h-6.4V69.5z"/>
<path class="st3" d="M977.9,57.2v-1.6c-0.8-0.4-1.8-0.6-2.7-0.6c-1,0-1.9,0.2-2.8,0.6c-0.9,0.4-1.6,0.9-2.3,1.6
	c-0.7,0.7-1.2,1.5-1.6,2.4c-0.8,1.9-0.8,3.9,0,5.8c0.4,0.9,0.9,1.7,1.6,2.3c0.7,0.7,1.4,1.2,2.3,1.6c0.9,0.4,1.8,0.6,2.8,0.6
	c1.3,0,2.5-0.3,3.6-1l1.2,1.7c-0.7,0.4-1.5,0.7-2.3,1c-0.8,0.2-1.7,0.4-2.5,0.4c-1.3,0-2.5-0.2-3.7-0.7c-1.1-0.5-2.1-1.2-3-2
	c-0.8-0.9-1.5-1.9-2-3c-0.5-1.2-0.7-2.4-0.7-3.7c0-1.3,0.2-2.5,0.7-3.7c0.5-1.1,1.1-2.1,2-3c0.9-0.8,1.9-1.5,3-2
	c1.2-0.5,2.4-0.8,3.7-0.8c0.8,0,1.7,0.1,2.5,0.3c0.8,0.2,1.6,0.6,2.3,1v3h-2.1V57.2z"/>
<path class="st3" d="M987,69.5h2.2c1.2-2.9,2.4-5.8,3.7-8.6s2.4-5.7,3.7-8.6c1.2,2.9,2.4,5.8,3.7,8.6s2.4,5.7,3.7,8.6h2.2v2.1h-5.8
	v-2.1h1.5c-0.4-0.9-0.7-1.8-1.1-2.6s-0.7-1.7-1.1-2.6h-5.8l-2.2,5.2h1.5v2.1h-5.9v-2.1H987z M996.7,58l-0.3-0.9c0,0.1,0,0.1-0.1,0.2
	c0,0.1,0,0.2-0.1,0.3c0,0.1-0.1,0.3-0.1,0.4l-0.6,1.5c-0.2,0.4-0.4,0.9-0.6,1.4c-0.2,0.4-0.4,0.9-0.5,1.3h4L996.7,58z"/>
</svg>
