<?xml version="1.0" encoding="utf-8"?>
<!-- Generator: Adobe Illustrator 21.0.0, SVG Export Plug-In . SVG Version: 6.00 Build 0)  -->
<svg version="1.1" id="Layer_1" xmlns="http://www.w3.org/2000/svg" xmlns:xlink="http://www.w3.org/1999/xlink" x="0px" y="0px"
	 viewBox="0 0 444.7 83" style="enable-background:new 0 0 444.7 83;" xml:space="preserve">
<g>
	<path style="fill:#4267B1;" d="M60.6,4.9c5.9,3.3,10.6,8.2,13.6,14.3c3.2,6.2,4.8,13.6,4.8,22.3s-1.6,16-4.8,22.3
		c-3,6-7.7,11-13.6,14.3c-5.9,3.3-12.9,4.9-21,4.9c-8.1,0-15.2-1.6-21.2-4.9c-5.9-3.3-10.7-8.2-13.7-14.3C1.6,57.5,0,50.1,0,41.5
		s1.6-16,4.8-22.3c3-6,7.8-11,13.7-14.3C24.4,1.6,31.4,0,39.5,0C47.7,0,54.7,1.6,60.6,4.9z M26.1,22.8C23,27,21.5,33.3,21.5,41.5
		s1.5,14.4,4.6,18.7c3.1,4.2,7.6,6.3,13.4,6.3c5.8,0,10.3-2.1,13.4-6.3c3.1-4.2,4.6-10.4,4.6-18.7S56,27,52.9,22.8
		c-3.1-4.2-7.5-6.3-13.4-6.3S29.2,18.6,26.1,22.8z"/>
	<path style="fill:#4267B1;" d="M103.2,1.2h39.2c19.3,0.1,29,7.3,29,21.7c0.1,4.4-1.3,8.6-4.1,12c-2.8,3.3-6.8,5.3-12.2,6.1v0.1
		c6,0.8,10.6,2.9,13.7,6.3c3.2,3.4,4.9,7.9,4.8,12.6c0,7-2.5,12.4-7.4,16.1c-5,3.7-12.2,5.6-21.8,5.6h-41L103.2,1.2z M138.6,34.2
		c7.6,0,11.4-2.9,11.4-8.8s-3.8-8.8-11.4-8.8h-15.1v17.6H138.6z M140.7,67c3.7,0,6.6-0.8,8.5-2.3c2-1.7,3-4.1,2.9-6.7
		c0.1-2.5-0.9-4.9-2.9-6.5c-1.9-1.5-4.7-2.3-8.5-2.3h-17.2V67H140.7z"/>
	<path style="fill:#4267B1;" d="M217.5,81.7h-21V1.2h21V81.7z"/>
	<path style="fill:#4267B1;" d="M302.4,4.9c5.9,3.3,10.6,8.2,13.6,14.3c3.2,6.2,4.8,13.6,4.8,22.3s-1.6,16-4.8,22.3
		c-3,6-7.7,11-13.6,14.3c-5.9,3.3-12.9,4.9-21,4.9s-15.1-1.6-21.1-4.9c-5.9-3.2-10.7-8.2-13.8-14.3c-3.2-6.2-4.8-13.6-4.8-22.3
		s1.6-16,4.8-22.3c3-6,7.8-11,13.7-14.3c5.9-3.3,13-4.9,21.1-4.9S296.5,1.6,302.4,4.9z M267.9,22.8c-3.1,4.2-4.6,10.4-4.6,18.7
		s1.5,14.4,4.6,18.7c3.1,4.2,7.5,6.3,13.4,6.3s10.3-2.1,13.4-6.3c3-4.2,4.6-10.4,4.6-18.7s-1.5-14.4-4.6-18.7
		c-3.1-4.2-7.5-6.3-13.4-6.3S271,18.6,267.9,22.8z"/>
</g>
<g>
	<path d="M371.4,60l-1.9,0l-20.7-30l-1.7-3l-0.1,0l0.1,3.5l-0.2,29.3l-1.4,0l0.3-34.3l1.9,0l20.8,30l1.7,2.9l0-3.4l0.2-29.3l1.4,0
		L371.4,60z"/>
	<path d="M393.7,46.9l-0.1,13.3l-1.5,0l0.1-13.3l-11.9-21.1l1.7,0l6.6,11.8l4.4,7.7l11.2-19.4l1.7,0L393.7,46.9z"/>
	<path d="M436.1,58.7c-2.4,1.6-5.3,2.3-8.7,2.3c-3.1,0-5.7-0.8-8-2.2c-2.3-1.5-4.1-3.5-5.4-6.2c-1.3-2.7-1.9-5.8-1.8-9.4
		c0-3.6,0.7-6.7,2-9.3c1.3-2.7,3.1-4.7,5.4-6.1c2.3-1.4,5-2.1,8.1-2.1c7.1,0.1,11.5,3,13.2,9l-1.4,0.7c-1.6-5.5-5.5-8.3-11.8-8.3
		c-2.8,0-5.2,0.6-7.3,1.9c-2.1,1.3-3.7,3.2-4.9,5.7c-1.2,2.5-1.8,5.3-1.8,8.7c0,3.3,0.5,6.2,1.7,8.7c1.1,2.5,2.7,4.4,4.8,5.7
		c2.1,1.4,4.5,2,7.3,2.1c3.1,0,5.7-0.7,7.8-2.1c2.1-1.4,3.6-3.5,4.4-6.2l1.5,0.5C440.2,54.9,438.5,57.1,436.1,58.7z"/>
</g>
<line style="fill:none;stroke:#4368B1;stroke-width:2;stroke-miterlimit:10;" x1="342.1" y1="2.2" x2="444.7" y2="2.2"/>
<line style="fill:none;stroke:#4368B1;stroke-width:2;stroke-miterlimit:10;" x1="342.1" y1="82" x2="444.7" y2="82"/>
</svg>
