<?xml version="1.0" encoding="utf-8"?>
<!-- Generator: Adobe Illustrator 21.0.0, SVG Export Plug-In . SVG Version: 6.00 Build 0)  -->
<svg version="1.1" id="Layer_1" xmlns="http://www.w3.org/2000/svg" xmlns:xlink="http://www.w3.org/1999/xlink" x="0px" y="0px"
	 viewBox="0 0 444.7 83" style="enable-background:new 0 0 444.7 83;" xml:space="preserve">
<style type="text/css">
	.st0{fill:#009688;}
	.st1{fill:none;stroke:#009688;stroke-width:2;stroke-miterlimit:10;}
</style>
<g>
	<path class="st0" d="M60.6,4.9c5.9,3.3,10.6,8.2,13.6,14.3c3.2,6.2,4.8,13.6,4.8,22.3s-1.6,16-4.8,22.3c-3,6-7.7,11-13.6,14.3
		c-5.9,3.3-12.9,4.9-21,4.9s-15.2-1.6-21.2-4.9c-5.9-3.3-10.7-8.2-13.7-14.3C1.6,57.5,0,50.1,0,41.5s1.6-16,4.8-22.3
		c3-6,7.8-11,13.7-14.3S31.4,0,39.5,0C47.7,0,54.7,1.6,60.6,4.9z M26.1,22.8C23,27,21.5,33.3,21.5,41.5s1.5,14.4,4.6,18.7
		c3.1,4.2,7.6,6.3,13.4,6.3s10.3-2.1,13.4-6.3c3.1-4.2,4.6-10.4,4.6-18.7S56,27,52.9,22.8s-7.5-6.3-13.4-6.3S29.2,18.6,26.1,22.8z"
		/>
	<path class="st0" d="M103.2,1.2h39.2c19.3,0.1,29,7.3,29,21.7c0.1,4.4-1.3,8.6-4.1,12c-2.8,3.3-6.8,5.3-12.2,6.1v0.1
		c6,0.8,10.6,2.9,13.7,6.3c3.2,3.4,4.9,7.9,4.8,12.6c0,7-2.5,12.4-7.4,16.1c-5,3.7-12.2,5.6-21.8,5.6h-41L103.2,1.2z M138.6,34.2
		c7.6,0,11.4-2.9,11.4-8.8s-3.8-8.8-11.4-8.8h-15.1v17.6C123.5,34.2,138.6,34.2,138.6,34.2z M140.7,67c3.7,0,6.6-0.8,8.5-2.3
		c2-1.7,3-4.1,2.9-6.7c0.1-2.5-0.9-4.9-2.9-6.5c-1.9-1.5-4.7-2.3-8.5-2.3h-17.2V67H140.7z"/>
	<path class="st0" d="M217.5,81.7h-21V1.2h21V81.7z"/>
	<path class="st0" d="M302.4,4.9c5.9,3.3,10.6,8.2,13.6,14.3c3.2,6.2,4.8,13.6,4.8,22.3s-1.6,16-4.8,22.3c-3,6-7.7,11-13.6,14.3
		c-5.9,3.3-12.9,4.9-21,4.9s-15.1-1.6-21.1-4.9c-5.9-3.2-10.7-8.2-13.8-14.3c-3.2-6.2-4.8-13.6-4.8-22.3s1.6-16,4.8-22.3
		c3-6,7.8-11,13.7-14.3s13-4.9,21.1-4.9S296.5,1.6,302.4,4.9z M267.9,22.8c-3.1,4.2-4.6,10.4-4.6,18.7s1.5,14.4,4.6,18.7
		c3.1,4.2,7.5,6.3,13.4,6.3s10.3-2.1,13.4-6.3c3-4.2,4.6-10.4,4.6-18.7s-1.5-14.4-4.6-18.7c-3.1-4.2-7.5-6.3-13.4-6.3
		S271,18.6,267.9,22.8z"/>
</g>
<line class="st1" x1="342.1" y1="1.2" x2="444.7" y2="1.2"/>
<line class="st1" x1="342.1" y1="82" x2="444.7" y2="82"/>
<g>
	<path d="M347.9,27.2h10.6c3.4,0,6,0.7,7.6,2.1c1.7,1.4,2.5,3.4,2.5,6.1c0,1.6-0.4,2.9-1.3,4.1c-0.9,1.2-2.1,2-3.7,2.2l0,0
		c1.7,0.3,3.1,1.1,4.2,2.4c1,1.3,1.6,2.7,1.6,4.4c0,2.6-1,4.6-2.9,6.1s-4.6,2.2-8.1,2.2h-10.5L347.9,27.2L347.9,27.2z M358.5,40.2
		c2.1,0,3.7-0.4,4.7-1.2s1.6-2,1.6-3.7c0-3.2-2.1-4.8-6.3-4.8h-7v9.7H358.5z M359.2,53.5c2.1,0,3.7-0.4,4.7-1.3
		c1-0.9,1.6-2.1,1.6-3.7c0-1.6-0.5-2.8-1.6-3.7c-1-0.9-2.6-1.3-4.7-1.3h-7.8v9.9L359.2,53.5L359.2,53.5z"/>
	<path d="M396.5,28.6c2.1,1.2,3.7,3,4.8,5.3s1.7,5,1.7,8.1s-0.6,5.8-1.7,8.1s-2.7,4.1-4.8,5.3c-2.1,1.2-4.5,1.9-7.3,1.9
		s-5.2-0.6-7.3-1.9c-2.1-1.2-3.7-3-4.8-5.3s-1.7-5-1.7-8.1s0.6-5.8,1.7-8.1s2.7-4.1,4.8-5.3c2.1-1.2,4.5-1.9,7.3-1.9
		S394.4,27.4,396.5,28.6z M381.9,33.3c-1.8,2.1-2.7,5-2.7,8.8c0,3.7,0.9,6.6,2.7,8.8c1.8,2.1,4.2,3.2,7.3,3.2s5.5-1.1,7.3-3.2
		c1.8-2.1,2.7-5,2.7-8.8c0-3.7-0.9-6.6-2.7-8.8c-1.8-2.1-4.2-3.2-7.3-3.2S383.7,31.2,381.9,33.3z"/>
	<path d="M431.9,33l-3.1,2.5c-0.9-2-2-3.4-3.2-4.2s-2.9-1.2-5.1-1.2c-2.3,0-4.1,0.5-5.4,1.4s-2,2.2-2,3.6c0,1,0.3,1.8,0.8,2.4
		c0.5,0.6,1.4,1.2,2.5,1.6c1.2,0.5,2.8,0.9,4.9,1.2c3.9,0.7,6.7,1.7,8.3,3c1.6,1.3,2.5,3.2,2.5,5.5c0,1.7-0.5,3.2-1.4,4.4
		s-2.3,2.3-4,3s-3.8,1.1-6,1.1c-3,0-5.6-0.6-7.7-1.8s-3.7-2.7-4.8-4.7l3.1-2.5c0.8,1.8,2,3.1,3.6,4.1s3.5,1.5,5.9,1.5
		c2.3,0,4.2-0.4,5.6-1.3c1.4-0.9,2.1-2.1,2.1-3.6c0-1.3-0.6-2.4-1.8-3.2c-1.2-0.8-3.3-1.4-6.4-2c-4-0.7-6.8-1.7-8.4-3
		c-1.7-1.3-2.5-3.1-2.5-5.4c0-1.6,0.5-3.1,1.3-4.4c0.9-1.3,2.2-2.4,3.9-3.2c1.7-0.8,3.6-1.2,5.9-1.2C425.8,26.7,429.6,28.8,431.9,33
		z"/>
</g>
</svg>
