<svg xmlns="http://www.w3.org/2000/svg" width="320.74" height="82.96" viewBox="0 0 320.74 82.96">
  <title>Obio</title>
  <g style="isolation: isolate">
    <path d="M66.06,24.46a33.21,33.21,0,0,1,13.6,14.27Q84.42,48.07,84.42,61T79.67,83.27a33.21,33.21,0,0,1-13.6,14.27q-8.85,4.94-21,4.94T23.91,97.54A33.11,33.11,0,0,1,10.25,83.27Q5.49,73.93,5.49,61t4.76-22.27A33.11,33.11,0,0,1,23.91,24.46q8.9-4.94,21.11-4.94T66.06,24.46ZM31.6,42.33Q27,48.68,27,61T31.6,79.67Q36.23,86,45,86t13.36-6.34Q63,73.32,63,61T58.38,42.33Q53.8,36,45,36T31.6,42.33Z" transform="translate(-5.49 -19.52)" style="fill: #36c"/>
    <path d="M108.7,20.74h39.16q29,.12,29,21.72a17.84,17.84,0,0,1-4.15,12q-4.15,4.88-12.2,6.1v.12q9,1.22,13.73,6.28A17.87,17.87,0,0,1,179,79.54q0,10.49-7.44,16.1t-21.84,5.61h-41Zm35.38,32.94q11.35,0,11.35-8.78t-11.35-8.78H129V53.68Zm2.07,32.82q5.61,0,8.48-2.32a8.13,8.13,0,0,0,2.87-6.71,7.82,7.82,0,0,0-2.87-6.53q-2.87-2.26-8.48-2.26H129V86.5Z" transform="translate(-5.49 -19.52)" style="fill: #36c"/>
    <path d="M223,101.26H202V20.74h21Z" transform="translate(-5.49 -19.52)" style="fill: #36c"/>
    <path d="M307.87,24.46a33.21,33.21,0,0,1,13.6,14.27q4.76,9.33,4.76,22.27t-4.76,22.26a33.21,33.21,0,0,1-13.6,14.27q-8.85,4.94-21,4.94t-21.11-4.94A33.1,33.1,0,0,1,252,83.27q-4.76-9.33-4.76-22.26T252,38.73a33.1,33.1,0,0,1,13.66-14.27q8.9-4.94,21.11-4.94T307.87,24.46ZM273.4,42.33q-4.64,6.34-4.64,18.67t4.64,18.67Q278,86,286.82,86t13.36-6.34q4.57-6.34,4.58-18.67t-4.58-18.67Q295.6,36,286.82,36T273.4,42.33Z" transform="translate(-5.49 -19.52)" style="fill: #36c"/>
  </g>
</svg>
