<svg id="Layer_1" data-name="Layer 1" xmlns="http://www.w3.org/2000/svg" viewBox="0 0 8.87 5.53"><defs><style>.cls-1{fill:#26a9e0;fill-rule:evenodd;}.cls-2{fill:#fff;}</style></defs><title>acsf</title><path class="cls-1" d="M10.63,11.1H5.32a1.69,1.69,0,0,1-.26-3.37,1,1,0,0,1,0-.2,1.07,1.07,0,0,1,1.09-1,1.13,1.13,0,0,1,.71.25,2.19,2.19,0,0,1,2-1.17A2.14,2.14,0,0,1,11,7.66V7.74A1.69,1.69,0,0,1,10.63,11.1Z" transform="translate(-3.54 -5.58)"/><path class="cls-2" d="M9.87,7.06A0.67,0.67,0,0,0,9.8,6.94a1.4,1.4,0,0,0,.13-0.34v0L9.61,6.4h0a2.28,2.28,0,0,0-.23.28H9.21L9.08,6.52A0.4,0.4,0,0,0,9,6.4l-0.07,0-0.15.08-0.09,0v0a1.38,1.38,0,0,0,.13.34,0.68,0.68,0,0,0-.07.13,0.72,0.72,0,0,0-.37.08V7.49a0.72,0.72,0,0,0,.37.08,0.73,0.73,0,0,0,.07.13A1.36,1.36,0,0,0,8.65,8v0L9,8.23a0.4,0.4,0,0,0,.11-0.12l0.13-.17H9.36L9.49,8.12a0.39,0.39,0,0,0,.11.12l0.31-.18V8A1.38,1.38,0,0,0,9.8,7.7a0.76,0.76,0,0,0,.07-0.13,0.72,0.72,0,0,0,.37-0.08V7.14A0.72,0.72,0,0,0,9.87,7.06Zm-0.36.48A0.32,0.32,0,0,1,9,7.32,0.32,0.32,0,1,1,9.51,7.54Z" transform="translate(-3.54 -5.58)"/><path class="cls-2" d="M8.37,9.48a0.09,0.09,0,0,0,0,0L8.13,9.15A1.24,1.24,0,0,0,8.21,9L8.59,8.9l0,0a0.09,0.09,0,0,0,0,0V8.36a0.07,0.07,0,0,0,0,0l0,0L8.21,8.23A1.57,1.57,0,0,0,8.13,8l0.11-.15,0.1-.13a0.08,0.08,0,0,0,0,0A1.35,1.35,0,0,0,8,7.3L8,7.28l0,0-0.29.22L7.42,7.44,7.37,7.06a0.06,0.06,0,0,0,0,0l0,0H6.83a0.07,0.07,0,0,0-.07.06,2.8,2.8,0,0,0-.06.38l-0.19.08L6.22,7.3l-0.05,0a0.48,0.48,0,0,0-.2.15,2.16,2.16,0,0,0-.2.22,0.07,0.07,0,0,0,0,0,0.09,0.09,0,0,0,0,0L6,8a1.26,1.26,0,0,0-.08.19l-0.39.06,0,0a0.08,0.08,0,0,0,0,0V8.82a0.07,0.07,0,0,0,0,0l0,0L5.91,8.95a1.16,1.16,0,0,0,.09.2L5.88,9.3l-0.1.13a0.08,0.08,0,0,0,0,0,1.34,1.34,0,0,0,.36.4l0.05,0,0,0,0.29-.22L6.7,9.74l0.06,0.38a0.06,0.06,0,0,0,0,0l0,0H7.29a0.07,0.07,0,0,0,.07-0.06,3,3,0,0,0,.06-0.39l0.19-.08L7.9,9.88,8,9.9a0.46,0.46,0,0,0,.2-0.15l0.21-.22A0.06,0.06,0,0,0,8.37,9.48ZM7.51,9A0.64,0.64,0,1,1,7.7,8.59,0.61,0.61,0,0,1,7.51,9Z" transform="translate(-3.54 -5.58)"/><path class="cls-2" d="M9.87,9.61A0.69,0.69,0,0,0,9.8,9.48a1.38,1.38,0,0,0,.13-0.34v0L9.61,8.95h0a2.28,2.28,0,0,0-.23.28H9.21L9.08,9.06A0.4,0.4,0,0,0,9,8.95L8.9,9l-0.15.08-0.09,0v0a1.36,1.36,0,0,0,.13.34,0.69,0.69,0,0,0-.07.13,0.72,0.72,0,0,0-.37.08V10a0.73,0.73,0,0,0,.37.08,0.69,0.69,0,0,0,.07.13,1.38,1.38,0,0,0-.13.34v0L9,10.78a0.41,0.41,0,0,0,.11-0.12l0.13-.17H9.36l0.13,0.17a0.4,0.4,0,0,0,.11.12l0.31-.18v0a1.4,1.4,0,0,0-.13-0.34,0.72,0.72,0,0,0,.07-0.13A0.73,0.73,0,0,0,10.24,10V9.69A0.72,0.72,0,0,0,9.87,9.61Zm-0.36.48a0.32,0.32,0,1,1-.22-0.54,0.31,0.31,0,0,1,.22.09A0.32,0.32,0,0,1,9.51,10.09Z" transform="translate(-3.54 -5.58)"/></svg>