<svg id="Layer_1" data-name="Layer 1" xmlns="http://www.w3.org/2000/svg" viewBox="0 0 9.13 8.24"><defs><style>.cls-1{fill:#27a9e0;}.cls-2{fill:#fff;}</style></defs><title>c-h</title><path class="cls-1" d="M9.09,5.15a0.9,0.9,0,0,0,.27.65l-1,1.73-0.18,0A0.9,0.9,0,0,0,7.49,9l-1,1.71-0.18,0-0.18,0L5.14,9a0.9,0.9,0,0,0,0-1.2l1-1.72a0.88,0.88,0,0,0,1.06-.65H9.27a0.28,0.28,0,1,0,0-.56H7.17a0.9,0.9,0,0,0-1.73.33,0.86,0.86,0,0,0,.22.61l-1,1.7-0.18,0a0.9,0.9,0,1,0,0,1.79l0.18,0,1,1.72A0.9,0.9,0,1,0,7,11L8,9.29l0.18,0a0.9,0.9,0,0,0,.68-1.49L9.87,6H10l0.18,0,1,1.72a0.9,0.9,0,0,0,0,1.24l-1,1.73-0.18,0a0.9,0.9,0,0,0-.85.61h-2a0.28,0.28,0,0,0,0,.56h2A0.9,0.9,0,1,0,10.66,11l1-1.77h0.12a0.9,0.9,0,0,0,0-1.79l-0.18,0-1-1.72A0.9,0.9,0,1,0,9.09,5.15ZM6,5.2a0.32,0.32,0,1,1,.32.33A0.32,0.32,0,0,1,6,5.2ZM4.16,8.39a0.32,0.32,0,1,1,.32.33A0.32,0.32,0,0,1,4.16,8.39Zm2.47,3.21a0.32,0.32,0,1,1-.32-0.33A0.32,0.32,0,0,1,6.63,11.59ZM8.49,8.41a0.32,0.32,0,1,1-.32-0.33A0.32,0.32,0,0,1,8.49,8.41Zm1.83,3.2A0.32,0.32,0,1,1,10,11.29,0.32,0.32,0,0,1,10.32,11.61Zm1.82-3.25A0.32,0.32,0,1,1,11.82,8,0.32,0.32,0,0,1,12.14,8.37Zm-1.83-3.2A0.32,0.32,0,1,1,10,4.84,0.32,0.32,0,0,1,10.31,5.16Z" transform="translate(-3.58 -4.26)"/><rect class="cls-1" x="8.8" y="8.8" width="0.54" height="2.48" transform="translate(-7.37 1.55) rotate(-29.72)"/><rect class="cls-1" x="6.98" y="5.59" width="0.54" height="2.53" transform="translate(-6.03 0.23) rotate(-29.72)"/><rect class="cls-1" x="8.8" y="8.07" width="2.47" height="0.54" transform="translate(-3.67 -4.16) rotate(-0.62)"/><rect class="cls-1" x="5.05" y="8.11" width="2.47" height="0.54" transform="translate(-3.67 -4.2) rotate(-0.62)"/><polygon class="cls-2" points="2.95 5.05 2.94 3.18 4.57 2.23 6.2 3.17 6.21 5.04 4.58 5.99 2.95 5.05"/><path class="cls-1" d="M8.17,10.57L6.26,9.48V7.29l1.89-1.1,1.9,1.09V9.46ZM6.8,9.16L8.16,9.94l1.36-.79V7.59L8.15,6.81,6.8,7.59V9.16Z" transform="translate(-3.58 -4.26)"/></svg>