<svg id="Layer_1" data-name="Layer 1" xmlns="http://www.w3.org/2000/svg" viewBox="0 0 8.68 8.67"><defs><style>.cls-1{fill:#27a7df;}</style></defs><title>lift</title><path class="cls-1" d="M3.77,12.9l1.78-2.82,1,1ZM12,6.8a6.09,6.09,0,0,1-1.35,1.92q-0.43.43-1,.94l-0.11,2a0.19,0.19,0,0,1-.09.14L7.39,13,7.31,13a0.19,0.19,0,0,1-.12,0l-0.34-.34a0.17,0.17,0,0,1,0-.17L7.26,11,6.9,10.63,6.12,9.85,5.76,9.5,4.3,9.95h0a0.17,0.17,0,0,1-.12,0L3.79,9.56a0.16,0.16,0,0,1,0-.21l1.19-2a0.19,0.19,0,0,1,.14-0.09l2-.11q0.51-.61.94-1a6.21,6.21,0,0,1,1.9-1.37,6,6,0,0,1,2.29-.38,0.18,0.18,0,0,1,.13.05,0.16,0.16,0,0,1,.05.12A5.94,5.94,0,0,1,12,6.8ZM10.39,5.73a0.65,0.65,0,1,0,.65.65A0.65,0.65,0,0,0,10.39,5.73Z" transform="translate(-3.73 -4.34)"/></svg>